<svg width="47" height="47" viewBox="0 0 47 47" fill="none" xmlns="http://www.w3.org/2000/svg">
<path fill-rule="evenodd" clip-rule="evenodd" d="M23.5 4.10914C12.7907 4.10914 4.10901 12.7908 4.10901 23.5002C4.10901 34.2095 12.7907 42.8912 23.5 42.8912C34.2094 42.8912 42.8911 34.2095 42.8911 23.5002C42.8911 12.7908 34.2094 4.10914 23.5 4.10914ZM0.583374 23.5002C0.583374 10.8436 10.8435 0.583496 23.5 0.583496C36.1566 0.583496 46.4167 10.8436 46.4167 23.5002C46.4167 36.1567 36.1566 46.4168 23.5 46.4168C10.8435 46.4168 0.583374 36.1567 0.583374 23.5002Z" fill="#2D2D2D" fill-opacity="0.25"/>
<path fill-rule="evenodd" clip-rule="evenodd" d="M17.5527 17.5528C18.2411 16.8644 19.3573 16.8644 20.0457 17.5528L23.5 21.0072L26.9544 17.5528C27.6428 16.8644 28.759 16.8644 29.4474 17.5528C30.1358 18.2412 30.1358 19.3574 29.4474 20.0458L25.993 23.5002L29.4474 26.9545C30.1358 27.6429 30.1358 28.7591 29.4474 29.4475C28.759 30.1359 27.6428 30.1359 26.9544 29.4475L23.5 25.9932L20.0457 29.4475C19.3573 30.1359 18.2411 30.1359 17.5527 29.4475C16.8643 28.7591 16.8643 27.6429 17.5527 26.9545L21.007 23.5002L17.5527 20.0458C16.8643 19.3574 16.8643 18.2412 17.5527 17.5528Z" fill="#2D2D2D" fill-opacity="0.25"/>
</svg>
