<svg width="55" height="55" viewBox="0 0 55 55" fill="none" xmlns="http://www.w3.org/2000/svg">
<path fill-rule="evenodd" clip-rule="evenodd" d="M27.5002 8.10901C16.7908 8.10901 8.10914 16.7907 8.10914 27.5C8.10914 38.2094 16.7908 46.8911 27.5002 46.8911C38.2095 46.8911 46.8912 38.2094 46.8912 27.5C46.8912 16.7907 38.2095 8.10901 27.5002 8.10901ZM4.5835 27.5C4.5835 14.8435 14.8436 4.58337 27.5002 4.58337C40.1567 4.58337 50.4168 14.8435 50.4168 27.5C50.4168 40.1566 40.1567 50.4167 27.5002 50.4167C14.8436 50.4167 4.5835 40.1566 4.5835 27.5Z" fill="#D9D9D9"/>
<path fill-rule="evenodd" clip-rule="evenodd" d="M21.5528 21.5527C22.2412 20.8643 23.3574 20.8643 24.0458 21.5527L27.5002 25.007L30.9545 21.5527C31.6429 20.8643 32.7591 20.8643 33.4475 21.5527C34.1359 22.2411 34.1359 23.3573 33.4475 24.0457L29.9932 27.5L33.4475 30.9544C34.1359 31.6428 34.1359 32.759 33.4475 33.4474C32.7591 34.1358 31.6429 34.1358 30.9545 33.4474L27.5002 29.993L24.0458 33.4474C23.3574 34.1358 22.2412 34.1358 21.5528 33.4474C20.8644 32.759 20.8644 31.6428 21.5528 30.9544L25.0072 27.5L21.5528 24.0457C20.8644 23.3573 20.8644 22.2411 21.5528 21.5527Z" fill="#D9D9D9"/>
</svg>
