<svg width="321" height="553" viewBox="0 0 321 553" fill="none" xmlns="http://www.w3.org/2000/svg">
<path d="M22.2553 136.952L16.6673 0H141.478L146.037 39.9072L200.667 91.7953C201.796 92.8678 202.361 94.4052 202.195 95.9537L183.081 274.22H204.171C206.503 274.22 208.526 275.832 209.046 278.106L235.513 393.941H213.857L179.092 327.809L139.198 347.193L160.285 452.662L134.639 446.391L113.552 379.119H107.283L113.552 433.848L95.315 423.587L77.0779 367.716H74.2283L82.777 423.587L60.5504 414.465L50.2172 385.087C49.8942 384.169 49.3101 383.365 48.5367 382.773L1.96058 347.175C0.203944 345.833 -0.462347 343.496 0.322125 341.429L22.3664 283.341L102.724 270.229L90.1858 179.582L24.7154 141.057C23.2511 140.196 22.3245 138.65 22.2553 136.952Z" fill="#161414"/>
<path d="M201.319 423.587L205.308 408.194L187.641 413.325L181.372 421.306L182.511 439.549L196.189 442.4L193.34 458.363H184.221V473.756H197.329L203.598 462.924L207.018 437.269L192.2 436.699L189.92 423.587H201.319Z" fill="#161414"/>
<path d="M235.513 407.054H213.857L207.018 473.756L223.545 477.746V452.662H231.524L232.664 475.466H245.202L238.933 449.241C237.793 442.02 235.513 427.349 235.513 426.437V407.054Z" fill="#161414"/>
<path d="M257.17 413.325L248.051 408.194L250.901 473.756L280.536 472.615L277.117 410.474H269.708V460.073L256.03 462.924L257.17 413.325Z" fill="#161414"/>
<path d="M293.074 410.474H285.096L287.375 475.466H310.742V460.073H294.214L293.074 410.474Z" fill="#161414"/>
<path d="M211.577 549.579V485.728H229.244L235.513 491.429V508.532L229.244 517.654L237.793 525.065V543.308L232.664 549.579H211.577Z" fill="#161414"/>
<path d="M262.869 485.728L242.922 484.588V488.578L245.202 490.289L240.642 548.439H253.181V530.196H260.019L262.869 549.579L273.127 551.29L262.869 485.728Z" fill="#161414"/>
<path d="M294.214 494.279L293.074 482.307H274.837L271.988 486.868L274.837 517.654H287.375V539.318H277.117V553L294.214 551.29L298.773 548.439L294.214 515.373L290.795 511.382H283.386V494.279H294.214Z" fill="#161414"/>
<path d="M319.29 504.541V491.429L304.473 492.569L298.773 502.261V519.364L310.742 521.644V535.327H301.623V551.29L314.161 549.579L321 543.308L319.29 515.373H305.612V508.532L309.032 504.541H319.29Z" fill="#161414"/>
</svg>
